<?xml version="1.0" encoding="UTF-8"?>
<svg width="85px" height="48px" viewBox="0 0 85 48" version="1.1" xmlns="http://www.w3.org/2000/svg" xmlns:xlink="http://www.w3.org/1999/xlink">
    <title>BEAT Group logo</title>
    <g id="Page-1" stroke="none" stroke-width="1" fill="none" fill-rule="evenodd">
        <g id="Welcome-page" transform="translate(-688.000000, -787.000000)" fill="#231F20">
            <path d="M707.080545,787 C713.007574,787 717.812775,791.833656 717.812775,797.800988 C717.812775,800.902518 716.499509,803.692832 714.413987,805.662322 C717.534688,807.358748 720.015814,810.088018 721.393796,813.396662 L721.393796,813.396662 L716.005612,813.396662 C714.215779,810.711812 711.261606,808.877492 707.872295,808.62841 L707.872295,808.62841 C707.434179,808.623777 707.080545,808.266778 707.080545,807.823391 L707.080545,807.823391 L707.080545,804.547177 C707.080545,804.10488 707.434179,803.746791 707.872295,803.746791 L707.872295,803.746791 L707.860381,803.748426 C710.783956,803.359815 713.04467,800.845834 713.04467,797.800988 C713.04467,794.482533 710.369939,791.798229 707.080545,791.798229 L707.080545,791.798229 L692.773792,791.798229 L692.773792,830.197684 L707.080545,830.197684 C711.752253,830.197684 715.713986,827.190172 717.189719,822.999114 L717.189719,822.999114 L707.644572,822.999114 L712.420259,818.196525 L722.526184,818.196525 C722.551366,818.593584 722.582235,818.992551 722.582235,819.400511 C722.582235,828.014813 715.645209,835 707.080545,835 L707.080545,835 L690.386896,835 C689.065777,835 688,833.926006 688,832.596389 L688,832.596389 L688,789.400886 C688,788.073177 689.065777,787 690.386896,787 L690.386896,787 Z M737.64459,817.246554 C738.574437,817.246554 739.458522,817.471382 740.237276,817.782325 L740.237276,819.085235 C739.494806,818.754397 738.670021,818.516489 737.785935,818.516489 C736.550381,818.516489 735.393624,818.860407 735.393624,821.29236 C735.393624,823.733033 736.550381,824.076951 737.785935,824.076951 C738.281998,824.076951 738.742047,823.995468 739.175831,823.876378 L739.175831,821.980196 L737.325886,821.980196 L738.574437,820.721162 L740.483683,820.721162 L740.483683,824.672404 C739.685433,825.06265 738.72905,825.347159 737.64459,825.347159 C735.972003,825.347159 733.980441,824.645697 733.980441,821.303533 C733.980441,817.947471 735.972003,817.246554 737.64459,817.246554 Z M753.499887,817.246472 C755.173828,817.246472 757.177304,817.947662 757.177304,821.303451 C757.177304,824.645888 755.173828,825.347077 753.499887,825.347077 C751.827571,825.347077 749.836009,824.645888 749.836009,821.303451 C749.836009,817.947662 751.827571,817.246472 753.499887,817.246472 Z M760.124653,817.341281 L760.124653,822.026415 C760.124653,823.426614 760.700866,824.04414 761.997886,824.04414 C763.306008,824.04414 763.884116,823.426614 763.884116,822.026415 L763.884116,817.341281 L765.297299,817.341281 L765.297299,821.907597 C765.297299,824.090468 764.095592,825.34705 761.997886,825.34705 C759.912365,825.34705 758.709575,824.090468 758.709575,821.907597 L758.709575,817.341281 L760.124653,817.341281 Z M745.491777,817.341145 C747.30571,817.341145 748.403438,818.232007 748.403438,819.879108 C748.403438,821.386951 747.447055,821.991124 746.681299,822.227125 L748.742992,825.25235 L747.036287,825.25235 L745.159805,822.465306 L743.888238,822.465306 L743.888238,825.25235 L742.475055,825.25235 L742.475055,817.341145 L745.491777,817.341145 Z M770.08861,817.341281 C771.938556,817.341281 773,818.315807 773,819.998062 C773,821.682497 771.938556,822.654842 770.08861,822.654842 L768.570095,822.654842 L768.570095,825.252213 L767.157182,825.252213 L767.157182,817.341281 L770.08861,817.341281 Z M753.499887,818.503326 C752.333652,818.503326 751.249192,818.836071 751.249192,821.292278 C751.249192,823.757206 752.333652,824.101396 753.499887,824.101396 C754.677495,824.101396 755.761955,823.757206 755.761955,821.292278 C755.761955,818.836071 754.677495,818.503326 753.499887,818.503326 Z M769.983278,818.659725 L768.570095,818.659725 L768.570095,821.362833 L769.983278,821.362833 C771.314145,821.362833 771.596836,820.818342 771.596836,819.998062 C771.596836,819.191135 771.314145,818.659725 769.983278,818.659725 Z M745.455764,818.670762 L743.888238,818.670762 L743.888238,821.162123 L745.455764,821.162123 C746.267281,821.162123 746.988089,820.970543 746.988089,819.916443 C746.988089,818.847081 746.267281,818.670762 745.455764,818.670762 Z M737.115546,805.488509 C738.459411,805.488509 739.83631,805.998936 739.83631,807.718799 C739.83631,808.501471 739.399276,808.988734 738.906463,809.248989 C739.517606,809.474906 740.273343,809.984243 740.273343,811.075678 C740.273343,811.988342 739.89561,813.399169 737.397966,813.399169 L734.286202,813.399169 L734.286202,805.488509 L737.115546,805.488509 Z M746.467737,805.488509 L746.467737,806.769618 L743.36572,806.769618 L743.36572,808.773717 L745.961656,808.773717 L745.961656,810.115324 L743.36572,810.115324 L743.36572,812.117516 L746.467737,812.117516 L746.467737,813.399169 L741.952537,813.399169 L741.952537,805.488509 L746.467737,805.488509 Z M752.577784,805.488673 L755.702005,813.39906 L754.180511,813.39906 L753.461599,811.502333 L750.138358,811.502333 L749.419717,813.39906 L747.900389,813.39906 L751.022173,805.488673 L752.577784,805.488673 Z M762.086592,805.488618 L760.696696,806.913889 L759.054707,806.913889 L759.054707,813.399005 L757.641794,813.399005 L757.641794,806.913889 L755.131154,806.913889 L755.131154,805.488618 L762.086592,805.488618 Z M737.386145,809.97396 L735.699114,809.97307 L735.699114,812.15376 L737.32594,812.15376 C738.127709,812.15376 738.857182,811.904679 738.857182,811.005096 C738.857182,810.116457 738.034303,809.985304 737.386145,809.97396 Z M751.800926,807.102526 L750.621423,810.209234 L752.967703,810.209234 L751.800926,807.102526 Z M737.09226,806.72329 L735.699114,806.72329 L735.699114,808.716488 L737.197592,808.716488 C737.384969,808.716488 738.423397,808.78707 738.423397,807.767307 C738.423397,806.877535 737.667389,806.72329 737.09226,806.72329 Z" id="BEAT-Group-logo"></path>
        </g>
    </g>
</svg>